Coordinates
version=1
nRows=11
nColumns=36
inDegrees=yes

Units are S.I. units (second, meters, Newtons, ...)
If the header above contains a line with 'inDegrees', this indicates whether rotational values are in degrees (yes) or radians (no).

endheader
time	pelvis_tilt	pelvis_list	pelvis_rotation	pelvis_tx	pelvis_ty	pelvis_tz	hip_flexion_r	hip_adduction_r	hip_rotation_r	knee_angle_r	knee_angle_r_beta	ankle_angle_r	subtalar_angle_r	mtp_angle_r	hip_flexion_l	hip_adduction_l	hip_rotation_l	knee_angle_l	knee_angle_l_beta	ankle_angle_l	subtalar_angle_l	mtp_angle_l	lumbar_extension	lumbar_bending	lumbar_rotation	arm_flex_r	arm_add_r	arm_rot_r	elbow_flex_r	pro_sup_r	arm_flex_l	arm_add_l	arm_rot_l	elbow_flex_l	pro_sup_l
      2.47500000	    -12.14948981	     -1.66726756	     -1.28759866	      0.23365213	      1.42881532	     -0.16971980	     10.07308725	     -1.33717514	     -4.53496012	      1.05097262	      0.01834293	    -36.84544422	      2.95367059	     -7.49999987	     11.49090946	     -9.05597826	     -8.30309306	      0.81142911	      0.01416211	    -28.95158428	      5.21472878	     -7.49999987	      1.18957854	      0.34620954	     -3.50336334	    158.10007797	     -4.11099543	     65.66750637	     13.63705375	     56.21899886	    160.77660693	     -7.00505659	     80.16527895	     22.46524958	     55.83585382
      2.47916670	    -12.05770637	     -1.63092865	     -1.03683004	      0.23320668	      1.42422702	     -0.17013369	     10.09070796	     -1.42739351	     -4.12209314	      1.05059382	      0.01833632	    -36.10984161	      3.23262368	     -7.49999987	     11.49533271	     -9.02532394	     -8.30635709	      0.64530440	      0.01126269	    -28.83122370	      5.22859983	     -7.49999987	      1.14277350	      0.23778594	     -3.72905027	    157.93395215	     -4.36412858	     64.61761695	     14.48824662	     57.07030854	    160.49362084	     -7.06254720	     79.48487806	     22.61092623	     56.40507895
      2.48333330	    -11.98651578	     -1.65825231	     -1.03327533	      0.22942979	      1.42192827	     -0.17373298	     10.24137855	     -1.53721651	     -3.94888881	      1.15111322	      0.02009072	    -35.54869851	      3.19769159	     -7.49999987	     11.81360024	     -9.01991436	     -8.06824685	      0.61703411	      0.01076928	    -28.97795847	      5.31255068	     -7.49999987	      0.71520707	      0.27776978	     -3.19094925	    158.07908354	     -4.91745822	     65.01858593	     15.42841091	     59.83320148	    160.50406584	     -6.92888643	     79.06080654	     22.64753811	     58.48020169
      2.48750000	    -11.75625656	     -1.59499038	     -1.26595381	      0.22972065	      1.41829425	     -0.17244237	     10.28880330	     -1.67607555	     -4.20321930	      1.39626079	      0.02436935	    -35.64584107	      2.74528673	     -7.49999987	     11.88231682	     -9.02216635	     -8.23139059	      0.55951929	      0.00976545	    -29.59558775	      5.21820867	     -7.49999987	      0.32305684	      0.11144620	     -2.68446701	    157.82974930	     -5.38109320	     64.61194532	     16.16673194	     60.01859158	    160.04942272	     -6.64085137	     78.48771000	     22.98179105	     58.54081271
      2.49166670	    -11.68845610	     -1.49431599	     -1.36877013	      0.23105282	      1.40576030	     -0.17028584	     10.54004887	     -1.82456162	     -4.48060348	      1.60119043	      0.02794604	    -36.23294010	      2.29241021	     -7.49999987	     12.05790329	     -9.09892272	     -8.20867038	      0.52428992	      0.00915059	    -30.64352495	      4.91713851	     -7.49999987	      0.10515241	     -0.00816286	     -2.85151135	    158.19790842	     -5.72638030	     67.44318859	     16.62113405	     60.48241063	    160.61885685	     -6.95123309	     81.36000782	     23.20583476	     58.70542597
      2.49583330	    -11.66123682	     -1.27780669	     -1.68871152	      0.22669059	      1.40351014	     -0.17475440	     11.03455417	     -2.18223000	     -5.08968465	      1.70297191	      0.02972247	    -36.79748316	      2.03718768	     -7.49999987	     12.30326049	     -8.94567482	     -8.18623870	      0.49556040	      0.00864916	    -31.41753465	      4.61171008	     -7.49999987	     -0.11528811	     -0.18512566	     -3.01644433	    157.89453383	     -6.33646943	     67.62740305	     17.87791834	     60.33165835	    160.68374867	     -7.11034893	     81.47632402	     23.81468813	     58.56567334
      2.50000000	    -11.79356797	     -1.43420279	     -1.52264501	      0.22734690	      1.39471738	     -0.17423422	     11.41827157	     -2.11200036	     -4.83070593	      1.76212961	      0.03075496	    -36.69111859	      1.99047530	     -7.49999987	     12.76634811	     -9.22163120	     -7.64534774	      0.48411929	      0.00844948	    -32.03788305	      4.41823758	     -7.49999987	     -0.28777604	      0.03719636	     -3.39530631	    158.46145961	     -6.74779644	     69.80560925	     18.74797884	     60.44853414	    160.91056986	     -7.14393744	     82.24854375	     23.72658513	     58.42259479
      2.50416670	    -11.91740890	     -1.55536016	     -1.79153633	      0.22742612	      1.38691826	     -0.17523730	     12.07374882	     -2.11970342	     -4.93562920	      1.94816565	      0.03400191	    -36.83545921	      1.65376021	     -7.49999987	     12.94537600	     -9.42142757	     -6.80783257	      0.49337891	      0.00861109	    -32.08011835	      4.41818002	     -7.49999987	     -0.61063216	      0.29502940	     -3.74661161	    158.88860844	     -7.00288105	     70.04979954	     20.08514681	     60.38171981	    161.57626679	     -7.62304863	     82.14734841	     24.87515374	     58.36144885
      2.50833330	    -11.84803200	     -1.66573473	     -2.00134481	      0.23202089	      1.38394614	     -0.17050545	     12.15952900	     -1.92696974	     -5.48260027	      1.85519359	      0.03237924	    -36.53099648	      1.94807761	     -7.49999987	     12.69360148	     -9.80151248	     -6.45071219	      0.45146696	      0.00787958	    -32.12529430	      4.53813993	     -7.49999987	     -0.69823480	      0.37127584	     -4.08177788	    158.56167526	     -7.45916202	     69.55927185	     22.09410431	     60.18346604	    161.48382057	     -8.65357909	     81.68845316	     26.86399076	     58.38962844
      2.51250000	    -11.98976885	     -1.69404213	     -2.10059781	      0.23264686	      1.37372631	     -0.16946835	     12.48986395	     -1.94371381	     -6.75132998	      1.92429886	      0.03358535	    -36.25821271	      1.80287349	     -7.49999987	     12.83823037	    -10.01702421	     -6.70208524	      0.42220266	      0.00736883	    -31.87600080	      4.26645308	     -7.49999987	     -0.39081328	      0.22767780	     -4.09327573	    158.39620266	     -8.08260182	     69.30656804	     23.51389359	     60.14257338	    161.21950245	     -9.28170385	     81.57239025	     28.18975216	     58.46400659
      2.51666670	    -11.83553590	     -1.57947703	     -2.04971852	      0.22829891	      1.37075842	     -0.17380020	     12.81496381	     -2.24809116	     -7.83262296	      2.06648878	      0.03606703	    -35.72862448	      2.05162237	     -7.49999987	     12.94577331	     -9.89290002	     -6.94661009	      0.41169940	      0.00718551	    -32.02288446	      3.93125524	     -7.49999987	     -0.61556359	      0.05570627	     -4.20661294	    158.04906620	     -8.73059024	     68.87205879	     25.25349148	     60.13797026	    160.91609637	    -10.15144968	     81.15066717	     29.82167865	     58.59436011
